<?xml version="1.0" encoding="UTF-8"?>
<svg id="Layer_1" data-name="Layer 1" xmlns="http://www.w3.org/2000/svg" xmlns:xlink="http://www.w3.org/1999/xlink" viewBox="0 0 581 362">
  <defs>
    <style>
      .cls-1 {
        fill: #82a07d;
        fill-rule: evenodd;
      }

      .cls-2 {
        fill: none;
        stroke: url(#linear-gradient);
      }
    </style>
    <linearGradient id="linear-gradient" x1="61.4" y1="692.8" x2="650.3" y2="323.9" gradientTransform="translate(-105 597.5) scale(1 -1)" gradientUnits="userSpaceOnUse">
      <stop offset="0" stop-color="#010101"/>
      <stop offset=".6" stop-color="#fff"/>
      <stop offset="1" stop-color="#010101" stop-opacity="0"/>
    </linearGradient>
  </defs>
  <path class="cls-2" d="m581,361.4c-34,1.5-97.5-15.4-79.5-95,22.5-99.5,16.5-102.5-125-120.4-141.5-18-172-80-142-122.4,25.3-35.7,123.5-38.5,112,54-11.5,92.5-220,124.4-310.5-28.5"/>
  <path class="cls-1" d="m40.9,14.7l3,.5-4.5,26.9c.4.1.8.3,1.1.5l16.7-20.1,2.3,1.9-16.7,20.1c.3.3.6.7.8,1.1l24.9-10,1.1,2.8-24.9,10c.2.7.2,1.5.2,2.3l26.9,4.8-.5,3-27-4.8c-.2.5-.4.9-.7,1.3l21.5,17.3-1.9,2.4-21.7-17.5c-.4.3-.8.5-1.2.7l10.7,26.2-2.8,1.1-10.8-26.5c-.3,0-.6,0-.9,0l-4.6,27.9-3-.5,4.6-27.9c-.6-.2-1.1-.4-1.6-.7l-18.8,22.7-2.3-1.9,18.9-22.8c-.2-.3-.4-.6-.6-.9l-26.8,10.7-1.1-2.8,26.8-10.7c0-.4-.1-.8-.1-1.1L0,45.7l.5-3,27.8,5c.1-.3.2-.7.4-1L6.8,29.1l1.9-2.4,21.7,17.5c.3-.3.6-.5.9-.8l-10.4-25.3,2.8-1.1,10.3,25.1c.8-.2,1.6-.4,2.4-.4l4.5-26.9Z"/>
</svg>