<svg width="85" height="15" viewBox="0 0 85 15" fill="none" xmlns="http://www.w3.org/2000/svg">
<path d="M8.652 14H11.312V0.738H8.652V6.191H2.971V0.738H0.311V14H2.971V8.357H8.652V14ZM23.6201 0.718999H15.9251V14H23.6201V11.834H18.5851V8.319H23.0501V6.21H18.5851V2.885H23.6201V0.718999ZM35.0624 4.861C35.0624 6.058 34.3974 6.837 32.9154 6.837H30.6924V2.942H32.9154C34.3974 2.942 35.0624 3.683 35.0624 4.861ZM28.0324 0.738V14H30.6924V8.832H31.9464L34.8724 14H37.9504L34.7774 8.623C36.9054 8.053 37.7984 6.419 37.7984 4.804C37.7984 2.581 36.2024 0.738 33.0104 0.738H28.0324ZM55.1383 7.331C55.1383 3.36 52.1363 0.548 48.3553 0.548C44.6123 0.548 41.5533 3.36 41.5533 7.331C41.5533 11.321 44.6123 14.133 48.3553 14.133C52.1173 14.133 55.1383 11.321 55.1383 7.331ZM44.2893 7.331C44.2893 4.633 45.9423 2.942 48.3553 2.942C50.7493 2.942 52.4023 4.633 52.4023 7.331C52.4023 10.029 50.7493 11.758 48.3553 11.758C45.9423 11.758 44.2893 10.029 44.2893 7.331ZM66.5983 14H69.9613L64.3373 7.312L69.8093 0.738H66.5983L61.7723 6.685V0.738H59.1123V14H61.7723V8.091L66.5983 14ZM73.6679 8.927C73.6679 12.423 76.0619 14.133 78.9689 14.133C81.8759 14.133 84.3839 12.423 84.3839 8.927V0.738H81.7049V8.946C81.7049 10.77 80.7169 11.72 79.0069 11.72C77.3159 11.72 76.3279 10.77 76.3279 8.946V0.738H73.6679V8.927Z" fill="#143C3C"/>
</svg>
