<?xml version="1.0" encoding="utf-8"?>
<!-- Generator: Adobe Illustrator 27.1.0, SVG Export Plug-In . SVG Version: 6.00 Build 0)  -->
<svg version="1.1" id="Layer_1" xmlns="http://www.w3.org/2000/svg" xmlns:xlink="http://www.w3.org/1999/xlink" x="0px" y="0px"
	 viewBox="0 0 57 59" style="enable-background:new 0 0 57 59;" xml:space="preserve">
<style type="text/css">
	.st0{fill:#153D3D;}
	.st1{fill:#82A07D;}
	.st2{fill:#FEF6F9;}
</style>
<g>
	<path class="st0" d="M28.54,59c-7.38,0-14.47-2.96-19.79-8.26c-5.32-5.3-8.45-12.52-8.73-20.15s2.3-15.08,7.21-20.79
		C12.14,4.1,18.99,0.59,26.35,0l0.3,4.06C20.31,4.57,14.4,7.6,10.17,12.51c-4.23,4.92-6.46,11.34-6.21,17.92
		c0.24,6.58,2.94,12.81,7.53,17.38c4.58,4.57,10.7,7.12,17.06,7.12V59z"/>
</g>
<ellipse class="st1" cx="28.96" cy="29.43" rx="22" ry="21.5"/>
<path class="st2" d="M33.45,28.15c0.66,0.39,0.65,1.36-0.02,1.73l-5.97,3.34c-0.67,0.38-1.5-0.12-1.49-0.89l0.09-6.84
	c0.01-0.77,0.85-1.24,1.51-0.85L33.45,28.15z"/>
</svg>
