<svg width="85" height="25" viewBox="0 0 85 25" fill="none" xmlns="http://www.w3.org/2000/svg">
<path d="M14.968 18.944C14.84 12.448 5.016 14.464 5.016 11.232C5.016 10.208 5.88 9.536 7.544 9.536C9.304 9.536 10.392 10.464 10.52 11.84H14.808C14.552 8.32 11.96 5.984 7.672 5.984C3.288 5.984 0.664 8.352 0.664 11.296C0.664 17.792 10.68 15.776 10.68 18.944C10.68 19.968 9.72 20.768 7.96 20.768C6.168 20.768 4.92 19.744 4.76 18.4H0.248C0.44 21.696 3.544 24.288 7.992 24.288C12.312 24.288 14.968 21.984 14.968 18.944ZM18.6455 24H23.1255V0.32H18.6455V24ZM26.3997 15.072C26.3997 20.608 29.9838 24.288 34.4638 24.288C37.2798 24.288 39.2958 22.944 40.3518 21.408V24H44.8638V6.272H40.3518V8.8C39.2958 7.328 37.3438 5.984 34.4958 5.984C29.9838 5.984 26.3997 9.536 26.3997 15.072ZM40.3518 15.136C40.3518 18.496 38.1118 20.352 35.6478 20.352C33.2478 20.352 30.9758 18.432 30.9758 15.072C30.9758 11.712 33.2478 9.92 35.6478 9.92C38.1118 9.92 40.3518 11.776 40.3518 15.136ZM48.0872 15.136C48.0872 20.704 51.7352 24.288 56.8553 24.288C61.2713 24.288 64.2473 21.792 65.2073 18.016H60.3753C59.8313 19.616 58.6793 20.448 56.8233 20.448C54.3273 20.448 52.6633 18.592 52.6633 15.136C52.6633 11.68 54.3273 9.792 56.8233 9.792C58.6793 9.792 59.8633 10.752 60.3753 12.256H65.2073C64.2473 8.288 61.2713 5.984 56.8553 5.984C51.7352 5.984 48.0872 9.568 48.0872 15.136ZM68.4893 24H72.9693V16.448L78.9853 24H84.8093L76.9373 15.168L84.7453 6.272H78.9213L72.9693 13.792V0.32H68.4893V24Z" fill="#143C3C"/>
</svg>
